<?xml version="1.0" standalone="no"?>
<!DOCTYPE svg PUBLIC "-//W3C//DTD SVG 20010904//EN"
 "http://www.w3.org/TR/2001/REC-SVG-20010904/DTD/svg10.dtd">
<svg version="1.0" xmlns="http://www.w3.org/2000/svg"
 width="270.000000pt" height="270.000000pt" viewBox="0 0 270.000000 270.000000"
 preserveAspectRatio="xMidYMid meet">
<metadata>
Created by potrace 1.14, written by Peter Selinger 2001-2017
</metadata>
<g transform="translate(0.000000,270.000000) scale(0.100000,-0.100000)"
fill="#000000" stroke="none">
<path d="M0 1345 l0 -1175 1350 0 1350 0 0 1175 0 1175 -1350 0 -1350 0 0
-1175z m1240 668 c0 -5 -24 -52 -54 -106 l-53 -97 -12 40 c-16 56 -76 113
-133 129 -28 8 -85 12 -150 9 -96 -3 -108 -5 -146 -32 -83 -57 -107 -179 -51
-260 16 -24 104 -89 267 -198 134 -89 262 -182 284 -206 22 -24 52 -69 66
-100 22 -48 27 -71 27 -147 0 -108 -18 -167 -76 -245 -81 -109 -179 -159 -329
-167 -148 -9 -262 35 -351 135 -35 40 -99 155 -99 178 0 9 191 117 196 111 2
-1 -1 -20 -6 -42 -46 -196 66 -355 250 -355 149 1 256 105 268 260 5 80 -20
149 -76 202 -20 20 -138 100 -262 178 -240 152 -306 206 -345 284 -34 68 -34
160 -1 233 43 92 147 172 250 193 52 10 536 13 536 3z m446 -15 c-9 -12 -16
-35 -16 -50 0 -28 245 -1158 258 -1191 8 -20 162 645 162 699 0 60 -40 160
-111 279 -79 133 -94 186 -65 231 30 45 70 54 241 54 l156 0 -34 -30 c-41 -36
-45 -48 -126 -415 -33 -148 -92 -409 -131 -579 -38 -170 -70 -320 -70 -333 l0
-24 -112 3 -111 3 -138 620 c-76 341 -143 638 -149 659 -7 22 -25 52 -42 68
l-30 28 167 0 166 0 -15 -22z"/>
<path d="M1963 1978 c-27 -13 -47 -60 -38 -90 4 -13 35 -70 69 -128 60 -101
99 -183 108 -225 4 -16 6 -17 11 -5 12 30 87 379 87 403 0 47 -22 57 -123 56
-51 0 -102 -5 -114 -11z"/>
</g>
</svg>
