<svg width="249" height="210" viewBox="0 0 249 210" fill="none" xmlns="http://www.w3.org/2000/svg">
<g id="logo-svg">
<path id="SV" d="M84.68 84.816C81.32 82.32 79.88 78.864 79.88 75.6C79.88 73.968 80.264 72.432 80.84 70.992C82.76 66.768 87.08 64.176 91.784 64.176H98.696C103.208 64.464 109.736 66.096 111.272 75.408L118.088 62.544H89.96C87.176 62.544 84.488 63.024 81.992 63.888C81.8 63.984 81.704 63.984 81.704 64.08C73.832 67.44 68.936 74.352 68.936 81.552C68.936 86.928 71.624 92.592 77.96 97.104L103.304 113.232C108.488 116.208 111.848 121.392 111.848 127.44C111.848 129.744 111.368 132.24 110.216 134.736C107.432 140.976 101.192 143.952 96.296 144.144H95.336C89.48 144.144 83.912 140.976 81.608 135.504C80.456 132.72 80.072 130.032 80.072 127.632C80.072 124.08 80.936 121.104 81.608 119.472L69.032 126.384C72.392 137.328 80.648 145.872 93.896 145.872C106.952 145.872 113.384 140.304 117.224 133.968C119.624 130.128 120.872 125.616 120.872 121.2C120.872 114.48 117.992 107.664 111.848 103.056L84.68 84.816ZM163.883 62.544C161.579 62.64 157.163 64.176 157.163 69.072V69.36C157.259 71.664 158.987 74.544 161.291 78.096C164.651 83.472 168.683 90 168.683 96.816C168.683 97.968 168.587 99.12 168.299 100.272L159.371 139.632L143.531 67.824C143.435 67.44 143.435 67.152 143.435 66.768C143.435 65.04 144.395 63.312 146.027 62.544H124.811C127.403 63.6 129.419 65.904 129.995 68.688L146.987 145.2H160.619C160.523 144.624 160.427 144.048 160.427 143.472C160.427 142.896 160.523 142.32 160.619 141.744L169.931 100.752V100.656L177.035 68.976C177.707 66 179.915 63.6 182.795 62.544H163.883ZM169.931 92.976C168.779 87.12 165.419 81.648 162.731 77.232C160.619 73.968 158.891 71.088 158.795 69.36V69.072C158.795 64.56 163.691 64.176 163.883 64.176H172.139C174.059 64.176 175.595 65.712 175.595 67.632C175.595 67.92 175.595 68.112 175.499 68.4L169.931 92.976Z" fill="#F5F5F5"/>
<circle id="pink-circle" cx="124" cy="105" r="82.7214" stroke="#B08D85" stroke-width="0.557178"/>
<circle id="pink-circle_2" cx="124" cy="105" r="95.7214" stroke="#F5F5F5" stroke-width="0.557178"/>
</g>
</svg>
