<svg width="559" height="486" viewBox="0 0 559 486" fill="none" xmlns="http://www.w3.org/2000/svg">
<g id="squiggy" clip-path="url(#clip0_2_2)">
<path id="shape" d="M316.691 62.2372L333.506 104.829C339.298 119.501 355.398 127.254 370.481 122.635L414.264 109.226C439.619 101.46 461.383 128.752 448.17 151.743L425.355 191.445C417.495 205.122 421.471 222.543 434.487 231.455L472.269 257.325C494.149 272.307 486.381 306.339 460.168 310.344L414.902 317.26C399.309 319.642 388.168 333.613 389.315 349.345L392.645 395.014C394.574 421.462 363.123 436.607 343.649 418.61L310.02 387.532C298.435 376.826 280.565 376.826 268.98 387.532L235.351 418.61C215.877 436.607 184.426 421.462 186.355 395.014L189.685 349.345C190.832 333.613 179.691 319.642 164.097 317.26L118.832 310.344C92.6191 306.339 84.8514 272.307 106.731 257.325L144.513 231.455C157.529 222.543 161.505 205.122 153.645 191.445L130.83 151.743C117.617 128.752 139.381 101.46 164.736 109.226L208.519 122.635C223.602 127.254 239.702 119.501 245.494 104.829L262.309 62.2372C272.046 37.5722 306.954 37.5722 316.691 62.2372Z" stroke="white"/>
<path id="SV" d="M232.7 213.94C227.8 210.3 225.7 205.26 225.7 200.5C225.7 198.12 226.26 195.88 227.1 193.78C229.9 187.62 236.2 183.84 243.06 183.84H253.14C259.72 184.26 269.24 186.64 271.48 200.22L281.42 181.46H240.4C236.34 181.46 232.42 182.16 228.78 183.42C228.5 183.56 228.36 183.56 228.36 183.7C216.88 188.6 209.74 198.68 209.74 209.18C209.74 217.02 213.66 225.28 222.9 231.86L259.86 255.38C267.42 259.72 272.32 267.28 272.32 276.1C272.32 279.46 271.62 283.1 269.94 286.74C265.88 295.84 256.78 300.18 249.64 300.46H248.24C239.7 300.46 231.58 295.84 228.22 287.86C226.54 283.8 225.98 279.88 225.98 276.38C225.98 271.2 227.24 266.86 228.22 264.48L209.88 274.56C214.78 290.52 226.82 302.98 246.14 302.98C265.18 302.98 274.56 294.86 280.16 285.62C283.66 280.02 285.48 273.44 285.48 267C285.48 257.2 281.28 247.26 272.32 240.54L232.7 213.94ZM348.204 181.46C344.844 181.6 338.404 183.84 338.404 190.98V191.4C338.544 194.76 341.064 198.96 344.424 204.14C349.324 211.98 355.204 221.5 355.204 231.44C355.204 233.12 355.064 234.8 354.644 236.48L341.624 293.88L318.524 189.16C318.384 188.6 318.384 188.18 318.384 187.62C318.384 185.1 319.784 182.58 322.164 181.46H291.224C295.004 183 297.944 186.36 298.784 190.42L323.564 302H343.444C343.304 301.16 343.164 300.32 343.164 299.48C343.164 298.64 343.304 297.8 343.444 296.96L357.024 237.18V237.04L367.384 190.84C368.364 186.5 371.584 183 375.784 181.46H348.204ZM357.024 225.84C355.344 217.3 350.444 209.32 346.524 202.88C343.444 198.12 340.924 193.92 340.784 191.4V190.98C340.784 184.4 347.924 183.84 348.204 183.84H360.244C363.044 183.84 365.284 186.08 365.284 188.88C365.284 189.3 365.284 189.58 365.144 190L357.024 225.84Z" fill="white"/>
</g>
<defs>
<clipPath id="clip0_2_2">
<rect width="559" height="486" fill="white"/>
</clipPath>
</defs>
</svg>
