<svg width="559" height="486" viewBox="0 0 559 486" fill="none" xmlns="http://www.w3.org/2000/svg">
<g id="squiggs" clip-path="url(#clip0_2_2)">
<path id="shape" d="M316.598 62.2739L333.413 104.865C339.224 119.586 355.377 127.365 370.51 122.73L414.293 109.321C439.561 101.582 461.251 128.781 448.084 151.694L425.268 191.395C417.382 205.117 421.372 222.596 434.43 231.537L472.212 257.408C494.017 272.338 486.276 306.254 460.152 310.245L414.887 317.161C399.242 319.551 388.064 333.568 389.215 349.353L392.546 395.022C394.468 421.378 363.125 436.472 343.716 418.537L310.087 387.459C298.464 376.717 280.536 376.717 268.913 387.459L235.284 418.536C215.875 436.472 184.532 421.378 186.454 395.022L189.785 349.353C190.936 333.568 179.758 319.551 164.113 317.161L118.848 310.245C92.7239 306.254 84.9828 272.338 106.788 257.408L144.57 231.537C157.628 222.596 161.618 205.117 153.732 191.395L130.916 151.694C117.749 128.781 139.439 101.582 164.707 109.321L208.49 122.73C223.623 127.365 239.776 119.586 245.587 104.865L262.402 62.2739C272.106 37.6933 306.894 37.6933 316.598 62.2739Z" stroke="white" stroke-width="1.2"/>
<path id="SV" d="M232.7 213.94C227.8 210.3 225.7 205.26 225.7 200.5C225.7 198.12 226.26 195.88 227.1 193.78C229.9 187.62 236.2 183.84 243.06 183.84H253.14C259.72 184.26 269.24 186.64 271.48 200.22L281.42 181.46H240.4C236.34 181.46 232.42 182.16 228.78 183.42C228.5 183.56 228.36 183.56 228.36 183.7C216.88 188.6 209.74 198.68 209.74 209.18C209.74 217.02 213.66 225.28 222.9 231.86L259.86 255.38C267.42 259.72 272.32 267.28 272.32 276.1C272.32 279.46 271.62 283.1 269.94 286.74C265.88 295.84 256.78 300.18 249.64 300.46H248.24C239.7 300.46 231.58 295.84 228.22 287.86C226.54 283.8 225.98 279.88 225.98 276.38C225.98 271.2 227.24 266.86 228.22 264.48L209.88 274.56C214.78 290.52 226.82 302.98 246.14 302.98C265.18 302.98 274.56 294.86 280.16 285.62C283.66 280.02 285.48 273.44 285.48 267C285.48 257.2 281.28 247.26 272.32 240.54L232.7 213.94ZM348.204 181.46C344.844 181.6 338.404 183.84 338.404 190.98V191.4C338.544 194.76 341.064 198.96 344.424 204.14C349.324 211.98 355.204 221.5 355.204 231.44C355.204 233.12 355.064 234.8 354.644 236.48L341.624 293.88L318.524 189.16C318.384 188.6 318.384 188.18 318.384 187.62C318.384 185.1 319.784 182.58 322.164 181.46H291.224C295.004 183 297.944 186.36 298.784 190.42L323.564 302H343.444C343.304 301.16 343.164 300.32 343.164 299.48C343.164 298.64 343.304 297.8 343.444 296.96L357.024 237.18V237.04L367.384 190.84C368.364 186.5 371.584 183 375.784 181.46H348.204ZM357.024 225.84C355.344 217.3 350.444 209.32 346.524 202.88C343.444 198.12 340.924 193.92 340.784 191.4V190.98C340.784 184.4 347.924 183.84 348.204 183.84H360.244C363.044 183.84 365.284 186.08 365.284 188.88C365.284 189.3 365.284 189.58 365.144 190L357.024 225.84Z" fill="white"/>
</g>
<defs>
<clipPath id="clip0_2_2">
<rect width="559" height="486" fill="white"/>
</clipPath>
</defs>
</svg>
